<svg viewBox="0 0 100 100" xmlns="http://www.w3.org/2000/svg" width="100" height="100"><path d="M79.5 47.6c-1.8.4-3.5.7-5.3.9v5c1.8-.2 3.5-.6 5.3-.9v-5z" style="fill:#c49de0;opacity:0.2">
</path><path d="M79.5 47.6v5c3.4-.7 6.8-1.6 10.1-2.7v-5c-3.2 1.1-6.6 2-10.1 2.7z" style="fill:#3a1a5a;opacity:0.2">
</path><path d="M79.5 57.7v-5c-1.8.4-3.5.7-5.3.9v3.5c.1.5.1 1 .1 1.5 1.8-.3 3.5-.6 5.2-.9z" style="fill:#c49de0;opacity:0.5">
</path><path d="M79.5 57.7c3.5-.7 6.9-1.6 10.2-2.7v-5c-3.3 1.1-6.7 2-10.1 2.7v5z" style="fill:#3a1a5a;opacity:0.5">
</path><path d="M50.4 79.4l-.3.6c.1-.3.2-.5.3-.6z" style="fill:#c49de0">
</path><path d="M51 78.4c-.2.2-.3.5-.5.7.2-.2.3-.4.5-.7z" style="fill:#c49de0">
</path><path d="M50 80.2c-.1.3-.2.5-.3.8 0-.3.2-.6.3-.8z" style="fill:#c49de0">
</path><path d="M49.6 80.9c-.1.3-.2.5-.3.8.2-.2.2-.5.3-.8z" style="fill:#c49de0">
</path><path d="M49.3 81.9c-.1.2-.1.4-.1.6 0-.2.1-.4.1-.6z" style="fill:#c49de0">
</path><path d="M49.1 82.7c0 .3-.1.5-.1.8.1-.2.1-.5.1-.8z" style="fill:#c49de0">
</path><path d="M53.6 75.6c-.2.1-.4.3-.5.5.1-.2.3-.3.5-.5z" style="fill:#c49de0">
</path><path d="M54.5 74.9c-.2.2-.5.3-.7.5.2-.1.5-.3.7-.5z" style="fill:#c49de0">
</path><path d="M51.5 77.7c-.2.2-.3.4-.4.6.1-.2.3-.4.4-.6z" style="fill:#c49de0">
</path><path d="M52.2 77c-.2.2-.3.4-.5.6.1-.3.3-.5.5-.6z" style="fill:#c49de0">
</path><path d="M52.3 76.8l.6-.6-.6.6z" style="fill:#c49de0">
</path><path d="M54.5 74.9c-.2.2-.5.3-.7.5l-.2.2c-.2.1-.4.3-.5.5l-.2.2-.6.6-.1.1c-.2.2-.3.4-.5.6l-.2.2c-.2.2-.3.4-.4.6l-.1.1c-.2.2-.3.5-.5.7 0 .1-.1.1-.1.2l-.3.6c0 .1-.1.1-.1.2-.1.3-.2.5-.3.8-.1.3-.2.5-.3.8 0 .1 0 .1-.1.2-.1.2-.1.4-.1.6v.2c0 .3-.1.5-.1.8v.1c0 1.1.1 2.3.8 3.2.2.3.5.6.8.8.1.1.3.1.4.2.8.3 1.6.3 2.4.4.9.1 1.7.2 2.6.2 1.7.1 3.8-.1 5.6-.1.2 0 .1-17.2.1-17.2-2.6 1.1-5.1 2.2-7.3 3.7z" style="fill:#e0b0ff">
</path><path d="M49.1 83.5c0-.3 0-.5.1-.8v-.2c0-.2.1-.4.1-.6 0-.1 0-.1.1-.2.1-.3.2-.5.3-.8.1-.3.2-.5.3-.8 0-.1.1-.1.1-.2l.3-.6c0-.1.1-.1.1-.2.1-.2.3-.5.5-.7l.1-.1c.1-.2.3-.4.4-.6l.2-.2c.2-.2.3-.4.5-.6l.1-.1.6-.6.2-.2.5-.5.2-.2c.2-.2.5-.4.7-.5 2.2-1.5 4.7-2.6 7.2-3.8V50.7c-4.3.1-8.5.7-12.6 1.5v31.3z" style="fill:#c49de0">
</path><path d="M50.5 79.2c0 .1-.1.1-.1.2 0-.1.1-.2.1-.2z" style="fill:#c49de0">
</path><path d="M49.1 83.7v-.1.1z" style="fill:#c49de0">
</path><path d="M51.1 78.3l-.1.1s0-.1.1-.1z" style="fill:#c49de0">
</path><path d="M53.8 75.4l-.2.2c.1 0 .1-.1.2-.2z" style="fill:#c49de0">
</path><path d="M53.1 76.1l-.2.2c.1-.1.1-.2.2-.2z" style="fill:#c49de0">
</path><path d="M51.7 77.5l-.2.2c.1 0 .1-.1.2-.2z" style="fill:#c49de0">
</path><path d="M52.2 77l.1-.1c-.1 0-.1 0-.1.1z" style="fill:#c49de0">
</path><path d="M49.2 82.5v0z" style="fill:#c49de0">
</path><path d="M50.1 79.9c0 .1-.1.1-.1.2 0 0 0-.1.1-.2z" style="fill:#c49de0">
</path><path d="M49.4 81.7c0 .1 0 .1-.1.2 0 0 .1-.1.1-.2z" style="fill:#c49de0">
</path><path d="M49.6 80.9z" style="fill:#c49de0">
</path><path d="M61.7 50.7v20.5c2.5-1.1 5-2.2 7.2-3.7 2.6-1.7 4.7-4.4 5.5-7.1.1-.3.2-.6.2-.9.1-.8.1-1.6 0-2.4-.2-.9-.5-1.7-1.1-2.5-2.4-3.3-7.4-4-11.8-3.9z" style="fill:#3a1a5a">
</path><path d="M74.6 22.8v2.4c.1-.8.1-1.6 0-2.4z" style="fill:none;opacity:0.5">
</path><path d="M74.6 17.8v2.4c.1-.9.1-1.7 0-2.4z" style="fill:none">
</path><path d="M25.3 23.1v-5c-5.1.8-10.2 1.2-15.3.6v5c5.2.6 10.2.2 15.3-.6z" style="fill:#3a1a5a;opacity:0.2">
</path><path d="M43.5 19.1v-5c-6.1 1.4-12.1 3-18.2 4v5c6.1-1 12.1-2.6 18.2-4z" style="fill:#5a2d82;opacity:0.2">
</path><path d="M61.7 16.4v-5c-6.1.2-12.2 1.3-18.2 2.7v5c6-1.4 12.1-2.6 18.2-2.7z" style="fill:#7b3fa0;opacity:0.2">
</path><path d="M73.5 15.3c-2.2-3.1-6.8-4-11-4h-.8v5h.8c4.2 0 8.8.9 11 4 .6.8.9 1.6 1.1 2.5v-5.1c-.2-.8-.5-1.6-1.1-2.4z" style="fill:#9b5fc0;opacity:0.2">
</path><path d="M25.3 28.1v-5c-5.1.8-10.2 1.2-15.3.6v5c5.2.6 10.2.2 15.3-.6z" style="fill:#3a1a5a;opacity:0.5">
</path><path d="M25.3 23.1v5c6.1-1 12.1-2.6 18.2-4v-5c-6.1 1.4-12.1 3-18.2 4z" style="fill:#5a2d82;opacity:0.5">
</path><path d="M43.5 19.1v5c6-1.4 12-2.6 18.2-2.7v-5c-6.1.1-12.2 1.3-18.2 2.7z" style="fill:#7b3fa0;opacity:0.5">
</path><path d="M62.5 16.4h-.8v5h.8c4.2 0 8.8.9 11 4 .6.8.9 1.6 1.1 2.5v-5.1c-.2-.9-.5-1.7-1.1-2.5-2.2-3.1-6.8-3.9-11-3.9z" style="fill:#9b5fc0;opacity:0.5">
</path><path d="M74.6 30.2c.1-.8.1-1.6 0-2.4v2.4z" style="fill:none">
</path><path d="M25.3 57.4V28.1c-5.1.8-10.2 1.2-15.3.6V58c5.2.6 10.2.2 15.3-.6z" style="fill:#3a1a5a">
</path><path d="M25.3 28.1v29.2c6.1-1 12.1-2.6 18.2-4V24.1c-6.1 1.4-12.1 3-18.2 4z" style="fill:#5a2d82">
</path><path d="M43.5 24.1v29.2c1.8-.4 3.7-.8 5.5-1.2 4.2-.8 8.4-1.4 12.6-1.5V21.4c-6 .2-12.1 1.3-18.1 2.7z" style="fill:#7b3fa0">
</path><path d="M73.5 25.4c-2.2-3.1-6.8-4-11-4h-.8v29.2c4.4-.1 9.4.6 11.8 3.9.6.8.9 1.6 1.1 2.5V27.8c-.2-.8-.5-1.7-1.1-2.4z" style="fill:#9b5fc0">
</path><path d="M74.6 58.6v.9c0-.3.1-.6 0-.9z" style="fill:#c49de0">
</path><path d="M74.5 58.5c0 .3 0 .6-.1.9 0 .3-.1.6-.2.9-.8 2.7-2.9 5.3-5.4 7-2.2 1.5-4.7 2.6-7.1 3.7v17.4c4.3 0 8.6-.2 12.8-.8.3 0 .5-.1.8-.1 1.5-.2 3-.5 4.5-.8v-29c-1.9.2-3.6.6-5.3.8z" style="fill:#c49de0">
</path><path d="M79.6 86.6c3.4-.7 6.8-1.6 10-2.7v-29c-3.3 1.1-6.6 2-10 2.7v29z" style="fill:#3a1a5a">
</path>
</svg>